<mxfile host="Electron" modified="2024-04-09T11:11:39.526Z" agent="Mozilla/5.0 (Macintosh; Intel Mac OS X 10_15_7) AppleWebKit/537.36 (KHTML, like Gecko) draw.io/23.0.2 Chrome/120.0.6099.109 Electron/28.1.0 Safari/537.36" etag="_jShBjDCyUjvU6Ct1M7G" version="23.0.2" type="device">
  <diagram name="Page-1" id="ebmAfVPDJfhYGBYWBI9B">
    <mxGraphModel dx="954" dy="639" grid="1" gridSize="10" guides="1" tooltips="1" connect="1" arrows="1" fold="1" page="1" pageScale="1" pageWidth="850" pageHeight="1100" math="0" shadow="0">
      <root>
        <mxCell id="0" />
        <mxCell id="1" parent="0" />
        <mxCell id="-jtir6Povm5GCSAs4y1E-4" style="edgeStyle=orthogonalEdgeStyle;rounded=0;orthogonalLoop=1;jettySize=auto;html=1;exitX=0.5;exitY=1;exitDx=0;exitDy=0;entryX=0;entryY=0.5;entryDx=0;entryDy=0;strokeColor=#990000;" parent="1" source="-jtir6Povm5GCSAs4y1E-1" target="-jtir6Povm5GCSAs4y1E-3" edge="1">
          <mxGeometry relative="1" as="geometry" />
        </mxCell>
        <mxCell id="-jtir6Povm5GCSAs4y1E-5" style="edgeStyle=orthogonalEdgeStyle;rounded=0;orthogonalLoop=1;jettySize=auto;html=1;exitX=1;exitY=0.5;exitDx=0;exitDy=0;entryX=0;entryY=0.5;entryDx=0;entryDy=0;strokeColor=#990000;" parent="1" source="-jtir6Povm5GCSAs4y1E-1" target="-jtir6Povm5GCSAs4y1E-2" edge="1">
          <mxGeometry relative="1" as="geometry" />
        </mxCell>
        <mxCell id="-jtir6Povm5GCSAs4y1E-1" value="&lt;b&gt;Generate environments&lt;/b&gt;&lt;br&gt;&lt;br&gt;User specifies height, width, number of trains, etc." style="rounded=0;whiteSpace=wrap;html=1;fillColor=#f8cecc;strokeColor=#b85450;fontFamily=IBM Plex Sans;align=left;verticalAlign=top;spacing=6;fontColor=#990000;" parent="1" vertex="1">
          <mxGeometry x="40" y="80" width="200" height="120" as="geometry" />
        </mxCell>
        <mxCell id="-jtir6Povm5GCSAs4y1E-2" value="&lt;b&gt;Visualize plans&lt;/b&gt;&lt;br&gt;&lt;br&gt;Visualizer takes as input the generated environment and the output from the user encodings." style="rounded=0;whiteSpace=wrap;html=1;fillColor=#dae8fc;strokeColor=#6c8ebf;fontFamily=IBM Plex Sans;align=left;verticalAlign=top;spacing=6;fontColor=#0066CC;" parent="1" vertex="1">
          <mxGeometry x="480" y="80" width="200" height="120" as="geometry" />
        </mxCell>
        <mxCell id="-jtir6Povm5GCSAs4y1E-6" style="edgeStyle=orthogonalEdgeStyle;rounded=0;orthogonalLoop=1;jettySize=auto;html=1;exitX=1;exitY=0.5;exitDx=0;exitDy=0;entryX=0.5;entryY=1;entryDx=0;entryDy=0;strokeColor=#FFB570;" parent="1" source="-jtir6Povm5GCSAs4y1E-3" target="-jtir6Povm5GCSAs4y1E-2" edge="1">
          <mxGeometry relative="1" as="geometry" />
        </mxCell>
        <mxCell id="-jtir6Povm5GCSAs4y1E-3" value="&lt;font color=&quot;#cc6600&quot;&gt;&lt;b&gt;Find paths&lt;/b&gt;&lt;br&gt;&lt;br&gt;User develops and applies own encodings.&lt;br&gt;&lt;/font&gt;" style="rounded=0;whiteSpace=wrap;html=1;fillColor=#fff2cc;strokeColor=#d6b656;fontFamily=IBM Plex Sans;align=left;verticalAlign=top;spacing=6;fontColor=#FFB570;" parent="1" vertex="1">
          <mxGeometry x="260" y="240" width="200" height="120" as="geometry" />
        </mxCell>
        <mxCell id="-jtir6Povm5GCSAs4y1E-7" value="&lt;h1&gt;env.lp&lt;/h1&gt;&lt;p&gt;When a Flatland environment is produced, it maps the cells to a series of Clingo facts that represent the location and track type of each cell.&lt;/p&gt;" style="text;html=1;strokeColor=none;fillColor=none;spacing=5;spacingTop=-20;whiteSpace=wrap;overflow=hidden;rounded=0;fontFamily=IBM Plex Sans;fontColor=#990000;" parent="1" vertex="1">
          <mxGeometry x="50" y="260" width="190" height="120" as="geometry" />
        </mxCell>
        <mxCell id="-jtir6Povm5GCSAs4y1E-8" value="&lt;h1&gt;env.p&lt;/h1&gt;&lt;p&gt;When a Flatland environment is produced, this file stores additional metadata properties that are important for the visualizer.&lt;/p&gt;" style="text;html=1;strokeColor=none;fillColor=none;spacing=5;spacingTop=-20;whiteSpace=wrap;overflow=hidden;rounded=0;fontFamily=IBM Plex Sans;fontColor=#990000;" parent="1" vertex="1">
          <mxGeometry x="240" y="30" width="240" height="120" as="geometry" />
        </mxCell>
      </root>
    </mxGraphModel>
  </diagram>
</mxfile>
